<svg width="109" height="42" viewBox="0 0 109 42" fill="none" xmlns="http://www.w3.org/2000/svg">
<rect x="10" y="12" width="5" height="30" rx="2.5" fill="#86C232"/>
<rect x="12" y="42" width="5" height="30" rx="2.5" transform="rotate(-90 12 42)" fill="#86C232"/>
<rect x="21.2132" width="5" height="30" rx="2.5" transform="rotate(45 21.2132 0)" fill="#86C232"/>
<path d="M20.36 24.824V22.664L22.352 22.256V19.88C22.352 19.304 22.416 18.8 22.544 18.368C22.672 17.936 22.872 17.552 23.144 17.216C23.432 16.864 23.824 16.6 24.32 16.424C24.816 16.232 25.416 16.136 26.12 16.136C27.32 16.136 28.392 16.328 29.336 16.712V18.704L27.032 18.68C26.776 18.68 26.56 18.712 26.384 18.776C26.208 18.84 26.072 18.912 25.976 18.992C25.896 19.056 25.832 19.2 25.784 19.424C25.752 19.632 25.728 19.808 25.712 19.952C25.712 20.08 25.712 20.32 25.712 20.672V22.256H28.616V24.824H25.712V35H22.352V24.824H20.36ZM32.8477 20.36V18.248C32.8477 17.832 33.0397 17.624 33.4237 17.624H35.9437C36.2957 17.624 36.4717 17.832 36.4717 18.248V20.36C36.4717 20.536 36.4237 20.672 36.3277 20.768C36.2477 20.864 36.1197 20.912 35.9437 20.912H33.4237C33.3117 20.912 33.2077 20.896 33.1117 20.864C33.0317 20.816 32.9677 20.752 32.9197 20.672C32.8717 20.576 32.8477 20.472 32.8477 20.36ZM32.9677 35V22.256H36.3277V35H32.9677ZM40.7572 35V22.256H43.4452L44.1172 23.624C44.5172 23.32 44.7972 23.12 44.9572 23.024C45.1332 22.912 45.4052 22.76 45.7732 22.568C46.1412 22.36 46.5092 22.224 46.8772 22.16C47.2612 22.08 47.6852 22.04 48.1492 22.04C50.6932 22.04 51.9652 23.528 51.9652 26.504V35H48.6052V26.456C48.6052 25.848 48.4772 25.408 48.2212 25.136C47.9812 24.864 47.6372 24.728 47.1892 24.728C46.7412 24.728 46.3412 24.776 45.9892 24.872C45.6532 24.952 45.3412 25.072 45.0532 25.232C44.7812 25.376 44.4692 25.576 44.1172 25.832V35H40.7572ZM56.0405 28.688C56.0405 27.808 56.0725 27.056 56.1365 26.432C56.2005 25.792 56.3205 25.184 56.4965 24.608C56.6725 24.032 56.9125 23.568 57.2165 23.216C57.5205 22.864 57.9205 22.584 58.4165 22.376C58.9125 22.168 59.5045 22.064 60.1925 22.064C60.5605 22.064 60.9685 22.096 61.4165 22.16C61.8645 22.224 62.3205 22.32 62.7845 22.448C63.2645 22.576 63.6885 22.728 64.0565 22.904V16.16H67.4165V35H64.6325L64.0565 33.704C63.5925 34.088 63.0085 34.424 62.3045 34.712C61.6005 35 60.8965 35.144 60.1925 35.144C59.8885 35.144 59.6005 35.12 59.3285 35.072C59.0565 35.024 58.8005 34.952 58.5605 34.856C58.3365 34.76 58.1205 34.648 57.9125 34.52C57.7205 34.376 57.5445 34.208 57.3845 34.016C57.2245 33.824 57.0725 33.624 56.9285 33.416C56.8005 33.192 56.6885 32.952 56.5925 32.696C56.4965 32.424 56.4085 32.144 56.3285 31.856C56.2645 31.552 56.2085 31.232 56.1605 30.896C56.1285 30.544 56.0965 30.192 56.0645 29.84C56.0485 29.472 56.0405 29.088 56.0405 28.688ZM59.4005 28.568C59.4005 29.928 59.5365 30.888 59.8085 31.448C60.0805 31.992 60.5045 32.264 61.0805 32.264C61.6725 32.264 62.2165 32.2 62.7125 32.072C63.2245 31.928 63.6725 31.736 64.0565 31.496V25.184C63.8325 25.088 63.6005 25.016 63.3605 24.968C63.1365 24.904 62.9045 24.856 62.6645 24.824C62.4245 24.776 62.1685 24.744 61.8965 24.728C61.6405 24.712 61.3685 24.704 61.0805 24.704C60.8405 24.704 60.6405 24.736 60.4805 24.8C60.3205 24.848 60.1685 24.96 60.0245 25.136C59.8805 25.296 59.7605 25.52 59.6645 25.808C59.5845 26.08 59.5205 26.448 59.4725 26.912C59.4245 27.36 59.4005 27.912 59.4005 28.568Z" fill="#86C232"/>
</svg>
